<?xml version="1.0" encoding="UTF-8" standalone="no"?>
<!DOCTYPE svg PUBLIC "-//W3C//DTD SVG 1.1//EN"
 "http://www.w3.org/Graphics/SVG/1.1/DTD/svg11.dtd">
<!-- Generated by graphviz version 2.43.0 (0)
 -->
<!-- Title: G Pages: 1 -->
<svg width="260pt" height="218pt"
 viewBox="0.00 0.00 259.50 218.00" xmlns="http://www.w3.org/2000/svg" xmlns:xlink="http://www.w3.org/1999/xlink">
<g id="graph0" class="graph" transform="scale(1 1) rotate(0) translate(4 214)">
<title>G</title>
<polygon fill="white" stroke="transparent" points="-4,4 -4,-214 255.5,-214 255.5,4 -4,4"/>
<!-- node1 -->
<g id="node1" class="node">
<title>node1</title>
<polygon fill="pink" stroke="black" points="171,-210 106,-210 106,-174 171,-174 171,-210"/>
<text text-anchor="middle" x="138.5" y="-187.6" font-family="Times,serif" font-size="18.00">man?</text>
</g>
<!-- node2 -->
<g id="node2" class="node">
<title>node2</title>
<polygon fill="pink" stroke="black" points="141,-123 0,-123 0,-87 141,-87 141,-123"/>
<text text-anchor="middle" x="70.5" y="-100.6" font-family="Times,serif" font-size="18.00">Vlad&#39;s friend?</text>
</g>
<!-- node1&#45;&gt;node2 -->
<g id="edge1" class="edge">
<title>node1&#45;&gt;node2</title>
<path fill="none" stroke="green" d="M124.74,-173.8C114.97,-161.59 101.69,-144.99 90.72,-131.28"/>
<polygon fill="green" stroke="green" points="93.22,-128.8 84.24,-123.18 87.75,-133.17 93.22,-128.8"/>
<text text-anchor="middle" x="118" y="-144.8" font-family="Times,serif" font-size="14.00">да</text>
</g>
<!-- node5 -->
<g id="node5" class="node">
<title>node5</title>
<polygon fill="pink" stroke="black" points="251.5,-123 159.5,-123 159.5,-87 251.5,-87 251.5,-123"/>
<text text-anchor="middle" x="205.5" y="-100.6" font-family="Times,serif" font-size="18.00">Noname</text>
</g>
<!-- node1&#45;&gt;node5 -->
<g id="edge4" class="edge">
<title>node1&#45;&gt;node5</title>
<path fill="none" stroke="red" d="M152.06,-173.8C161.68,-161.59 174.77,-144.99 185.58,-131.28"/>
<polygon fill="red" stroke="red" points="188.52,-133.2 191.96,-123.18 183.02,-128.86 188.52,-133.2"/>
<text text-anchor="middle" x="189" y="-144.8" font-family="Times,serif" font-size="14.00">нет</text>
</g>
<!-- node3 -->
<g id="node3" class="node">
<title>node3</title>
<polygon fill="pink" stroke="black" points="62.5,-36 0.5,-36 0.5,0 62.5,0 62.5,-36"/>
<text text-anchor="middle" x="31.5" y="-13.6" font-family="Times,serif" font-size="18.00">Kirill</text>
</g>
<!-- node2&#45;&gt;node3 -->
<g id="edge2" class="edge">
<title>node2&#45;&gt;node3</title>
<path fill="none" stroke="green" d="M62.61,-86.8C57.16,-74.93 49.82,-58.93 43.64,-45.45"/>
<polygon fill="green" stroke="green" points="46.73,-43.8 39.38,-36.18 40.37,-46.72 46.73,-43.8"/>
<text text-anchor="middle" x="62" y="-57.8" font-family="Times,serif" font-size="14.00">да</text>
</g>
<!-- node4 -->
<g id="node4" class="node">
<title>node4</title>
<polygon fill="pink" stroke="black" points="138,-36 81,-36 81,0 138,0 138,-36"/>
<text text-anchor="middle" x="109.5" y="-13.6" font-family="Times,serif" font-size="18.00">Vlad</text>
</g>
<!-- node2&#45;&gt;node4 -->
<g id="edge3" class="edge">
<title>node2&#45;&gt;node4</title>
<path fill="none" stroke="red" d="M78.39,-86.8C83.84,-74.93 91.18,-58.93 97.36,-45.45"/>
<polygon fill="red" stroke="red" points="100.63,-46.72 101.62,-36.18 94.27,-43.8 100.63,-46.72"/>
<text text-anchor="middle" x="105" y="-57.8" font-family="Times,serif" font-size="14.00">нет</text>
</g>
</g>
</svg>
