<?xml version="1.0" encoding="UTF-8" standalone="no"?>
<!DOCTYPE svg PUBLIC "-//W3C//DTD SVG 1.1//EN"
 "http://www.w3.org/Graphics/SVG/1.1/DTD/svg11.dtd">
<!-- Generated by graphviz version 2.43.0 (0)
 -->
<!-- Title: G Pages: 1 -->
<svg width="176pt" height="131pt"
 viewBox="0.00 0.00 175.50 131.00" xmlns="http://www.w3.org/2000/svg" xmlns:xlink="http://www.w3.org/1999/xlink">
<g id="graph0" class="graph" transform="scale(1 1) rotate(0) translate(4 127)">
<title>G</title>
<polygon fill="white" stroke="transparent" points="-4,4 -4,-127 171.5,-127 171.5,4 -4,4"/>
<!-- node1 -->
<g id="node1" class="node">
<title>node1</title>
<polygon fill="pink" stroke="black" points="107,-123 42,-123 42,-87 107,-87 107,-123"/>
<text text-anchor="middle" x="74.5" y="-100.6" font-family="Times,serif" font-size="18.00">man?</text>
</g>
<!-- node2 -->
<g id="node2" class="node">
<title>node2</title>
<polygon fill="pink" stroke="black" points="57,-36 0,-36 0,0 57,0 57,-36"/>
<text text-anchor="middle" x="28.5" y="-13.6" font-family="Times,serif" font-size="18.00">Vlad</text>
</g>
<!-- node1&#45;&gt;node2 -->
<g id="edge1" class="edge">
<title>node1&#45;&gt;node2</title>
<path fill="none" stroke="green" d="M65.19,-86.8C58.71,-74.82 49.94,-58.62 42.6,-45.06"/>
<polygon fill="green" stroke="green" points="45.63,-43.3 37.79,-36.18 39.48,-46.64 45.63,-43.3"/>
<text text-anchor="middle" x="63" y="-57.8" font-family="Times,serif" font-size="14.00">да</text>
</g>
<!-- node3 -->
<g id="node3" class="node">
<title>node3</title>
<polygon fill="pink" stroke="black" points="167.5,-36 75.5,-36 75.5,0 167.5,0 167.5,-36"/>
<text text-anchor="middle" x="121.5" y="-13.6" font-family="Times,serif" font-size="18.00">Noname</text>
</g>
<!-- node1&#45;&gt;node3 -->
<g id="edge2" class="edge">
<title>node1&#45;&gt;node3</title>
<path fill="none" stroke="red" d="M84.01,-86.8C90.64,-74.82 99.59,-58.62 107.09,-45.06"/>
<polygon fill="red" stroke="red" points="110.23,-46.62 112,-36.18 104.1,-43.23 110.23,-46.62"/>
<text text-anchor="middle" x="113" y="-57.8" font-family="Times,serif" font-size="14.00">нет</text>
</g>
</g>
</svg>
