<?xml version="1.0" encoding="UTF-8" standalone="no"?>
<!DOCTYPE svg PUBLIC "-//W3C//DTD SVG 1.1//EN"
 "http://www.w3.org/Graphics/SVG/1.1/DTD/svg11.dtd">
<!-- Generated by graphviz version 2.43.0 (0)
 -->
<!-- Title: G Pages: 1 -->
<svg width="1599pt" height="653pt"
 viewBox="0.00 0.00 1598.50 653.00" xmlns="http://www.w3.org/2000/svg" xmlns:xlink="http://www.w3.org/1999/xlink">
<g id="graph0" class="graph" transform="scale(1 1) rotate(0) translate(4 649)">
<title>G</title>
<polygon fill="white" stroke="transparent" points="-4,4 -4,-649 1594.5,-649 1594.5,4 -4,4"/>
<!-- node1 -->
<g id="node1" class="node">
<title>node1</title>
<polygon fill="pink" stroke="black" points="1033,-645 968,-645 968,-609 1033,-609 1033,-645"/>
<text text-anchor="middle" x="1000.5" y="-622.6" font-family="Times,serif" font-size="18.00">man?</text>
</g>
<!-- node2 -->
<g id="node2" class="node">
<title>node2</title>
<polygon fill="pink" stroke="black" points="973,-558 836,-558 836,-522 973,-522 973,-558"/>
<text text-anchor="middle" x="904.5" y="-535.6" font-family="Times,serif" font-size="18.00">18 years old?</text>
</g>
<!-- node1&#45;&gt;node2 -->
<g id="edge1" class="edge">
<title>node1&#45;&gt;node2</title>
<path fill="none" stroke="green" d="M981.07,-608.8C966.89,-596.24 947.47,-579.05 931.74,-565.12"/>
<polygon fill="green" stroke="green" points="933.71,-562.18 923.9,-558.18 929.06,-567.43 933.71,-562.18"/>
<text text-anchor="middle" x="967" y="-579.8" font-family="Times,serif" font-size="14.00">да</text>
</g>
<!-- node27 -->
<g id="node27" class="node">
<title>node27</title>
<polygon fill="pink" stroke="black" points="1171,-558 1064,-558 1064,-522 1171,-522 1171,-558"/>
<text text-anchor="middle" x="1117.5" y="-535.6" font-family="Times,serif" font-size="18.00">beautiful?</text>
</g>
<!-- node1&#45;&gt;node27 -->
<g id="edge38" class="edge">
<title>node1&#45;&gt;node27</title>
<path fill="none" stroke="red" d="M1024.18,-608.8C1041.86,-595.95 1066.22,-578.26 1085.61,-564.17"/>
<polygon fill="red" stroke="red" points="1087.83,-566.88 1093.86,-558.18 1083.71,-561.22 1087.83,-566.88"/>
<text text-anchor="middle" x="1079" y="-579.8" font-family="Times,serif" font-size="14.00">нет</text>
</g>
<!-- node3 -->
<g id="node3" class="node">
<title>node3</title>
<polygon fill="pink" stroke="black" points="710,-471 543,-471 543,-435 710,-435 710,-471"/>
<text text-anchor="middle" x="626.5" y="-448.6" font-family="Times,serif" font-size="18.00">a MIPT student?</text>
</g>
<!-- node2&#45;&gt;node3 -->
<g id="edge2" class="edge">
<title>node2&#45;&gt;node3</title>
<path fill="none" stroke="green" d="M848.58,-521.9C803.33,-508.07 739.54,-488.56 691.93,-474.01"/>
<polygon fill="green" stroke="green" points="692.92,-470.65 682.33,-471.07 690.87,-477.34 692.92,-470.65"/>
<text text-anchor="middle" x="791" y="-492.8" font-family="Times,serif" font-size="14.00">да</text>
</g>
<!-- node18 -->
<g id="node18" class="node">
<title>node18</title>
<polygon fill="pink" stroke="black" points="997,-471 812,-471 812,-435 997,-435 997,-471"/>
<text text-anchor="middle" x="904.5" y="-448.6" font-family="Times,serif" font-size="18.00">Studies at Letovo?</text>
</g>
<!-- node2&#45;&gt;node18 -->
<g id="edge25" class="edge">
<title>node2&#45;&gt;node18</title>
<path fill="none" stroke="red" d="M904.5,-521.8C904.5,-510.16 904.5,-494.55 904.5,-481.24"/>
<polygon fill="red" stroke="red" points="908,-481.18 904.5,-471.18 901,-481.18 908,-481.18"/>
<text text-anchor="middle" x="917" y="-492.8" font-family="Times,serif" font-size="14.00">нет</text>
</g>
<!-- node4 -->
<g id="node4" class="node">
<title>node4</title>
<polygon fill="pink" stroke="black" points="489,-384 316,-384 316,-348 489,-348 489,-384"/>
<text text-anchor="middle" x="402.5" y="-361.6" font-family="Times,serif" font-size="18.00">studies at FOPF?</text>
</g>
<!-- node3&#45;&gt;node4 -->
<g id="edge3" class="edge">
<title>node3&#45;&gt;node4</title>
<path fill="none" stroke="green" d="M581.44,-434.9C545.52,-421.27 495.09,-402.13 456.91,-387.65"/>
<polygon fill="green" stroke="green" points="458.08,-384.35 447.49,-384.07 455.6,-390.89 458.08,-384.35"/>
<text text-anchor="middle" x="537" y="-405.8" font-family="Times,serif" font-size="14.00">да</text>
</g>
<!-- node17 -->
<g id="node17" class="node">
<title>node17</title>
<polygon fill="pink" stroke="black" points="663.5,-384 589.5,-384 589.5,-348 663.5,-348 663.5,-384"/>
<text text-anchor="middle" x="626.5" y="-361.6" font-family="Times,serif" font-size="18.00">Danya</text>
</g>
<!-- node3&#45;&gt;node17 -->
<g id="edge16" class="edge">
<title>node3&#45;&gt;node17</title>
<path fill="none" stroke="red" d="M626.5,-434.8C626.5,-423.16 626.5,-407.55 626.5,-394.24"/>
<polygon fill="red" stroke="red" points="630,-394.18 626.5,-384.18 623,-394.18 630,-394.18"/>
<text text-anchor="middle" x="639" y="-405.8" font-family="Times,serif" font-size="14.00">нет</text>
</g>
<!-- node5 -->
<g id="node5" class="node">
<title>node5</title>
<polygon fill="pink" stroke="black" points="240.5,-297 122.5,-297 122.5,-261 240.5,-261 240.5,-297"/>
<text text-anchor="middle" x="181.5" y="-274.6" font-family="Times,serif" font-size="18.00">drive bike?</text>
</g>
<!-- node4&#45;&gt;node5 -->
<g id="edge4" class="edge">
<title>node4&#45;&gt;node5</title>
<path fill="none" stroke="green" d="M358.04,-347.9C322.75,-334.33 273.27,-315.29 235.66,-300.83"/>
<polygon fill="green" stroke="green" points="236.48,-297.39 225.89,-297.07 233.96,-303.93 236.48,-297.39"/>
<text text-anchor="middle" x="314" y="-318.8" font-family="Times,serif" font-size="14.00">да</text>
</g>
<!-- node8 -->
<g id="node8" class="node">
<title>node8</title>
<polygon fill="pink" stroke="black" points="492.5,-297 312.5,-297 312.5,-261 492.5,-261 492.5,-297"/>
<text text-anchor="middle" x="402.5" y="-274.6" font-family="Times,serif" font-size="18.00">studies at FRKT!?</text>
</g>
<!-- node4&#45;&gt;node8 -->
<g id="edge15" class="edge">
<title>node4&#45;&gt;node8</title>
<path fill="none" stroke="red" d="M402.5,-347.8C402.5,-336.16 402.5,-320.55 402.5,-307.24"/>
<polygon fill="red" stroke="red" points="406,-307.18 402.5,-297.18 399,-307.18 406,-307.18"/>
<text text-anchor="middle" x="415" y="-318.8" font-family="Times,serif" font-size="14.00">нет</text>
</g>
<!-- node6 -->
<g id="node6" class="node">
<title>node6</title>
<polygon fill="pink" stroke="black" points="71,-210 0,-210 0,-174 71,-174 71,-210"/>
<text text-anchor="middle" x="35.5" y="-187.6" font-family="Times,serif" font-size="18.00">Sanya</text>
</g>
<!-- node5&#45;&gt;node6 -->
<g id="edge5" class="edge">
<title>node5&#45;&gt;node6</title>
<path fill="none" stroke="green" d="M151.95,-260.8C129.39,-247.66 98.13,-229.46 73.67,-215.22"/>
<polygon fill="green" stroke="green" points="75.4,-212.18 65,-210.18 71.88,-218.23 75.4,-212.18"/>
<text text-anchor="middle" x="126" y="-231.8" font-family="Times,serif" font-size="14.00">да</text>
</g>
<!-- node7 -->
<g id="node7" class="node">
<title>node7</title>
<polygon fill="pink" stroke="black" points="274,-210 89,-210 89,-174 274,-174 274,-210"/>
<text text-anchor="middle" x="181.5" y="-187.6" font-family="Times,serif" font-size="18.00">A friend of Kirpich</text>
</g>
<!-- node5&#45;&gt;node7 -->
<g id="edge6" class="edge">
<title>node5&#45;&gt;node7</title>
<path fill="none" stroke="red" d="M181.5,-260.8C181.5,-249.16 181.5,-233.55 181.5,-220.24"/>
<polygon fill="red" stroke="red" points="185,-220.18 181.5,-210.18 178,-220.18 185,-220.18"/>
<text text-anchor="middle" x="194" y="-231.8" font-family="Times,serif" font-size="14.00">нет</text>
</g>
<!-- node9 -->
<g id="node9" class="node">
<title>node9</title>
<polygon fill="pink" stroke="black" points="429,-210 292,-210 292,-174 429,-174 429,-210"/>
<text text-anchor="middle" x="360.5" y="-187.6" font-family="Times,serif" font-size="18.00">Lives in 229?</text>
</g>
<!-- node8&#45;&gt;node9 -->
<g id="edge7" class="edge">
<title>node8&#45;&gt;node9</title>
<path fill="none" stroke="green" d="M394,-260.8C388.14,-248.93 380.23,-232.93 373.57,-219.45"/>
<polygon fill="green" stroke="green" points="376.55,-217.59 368.99,-210.18 370.28,-220.69 376.55,-217.59"/>
<text text-anchor="middle" x="393" y="-231.8" font-family="Times,serif" font-size="14.00">да</text>
</g>
<!-- node14 -->
<g id="node14" class="node">
<title>node14</title>
<polygon fill="pink" stroke="black" points="639.5,-210 447.5,-210 447.5,-174 639.5,-174 639.5,-210"/>
<text text-anchor="middle" x="543.5" y="-187.6" font-family="Times,serif" font-size="18.00">Vserossnik po infe?</text>
</g>
<!-- node8&#45;&gt;node14 -->
<g id="edge14" class="edge">
<title>node8&#45;&gt;node14</title>
<path fill="none" stroke="red" d="M431.03,-260.8C452.73,-247.72 482.75,-229.62 506.32,-215.41"/>
<polygon fill="red" stroke="red" points="508.25,-218.34 515.01,-210.18 504.64,-212.34 508.25,-218.34"/>
<text text-anchor="middle" x="494" y="-231.8" font-family="Times,serif" font-size="14.00">нет</text>
</g>
<!-- node10 -->
<g id="node10" class="node">
<title>node10</title>
<polygon fill="pink" stroke="black" points="327,-123 184,-123 184,-87 327,-87 327,-123"/>
<text text-anchor="middle" x="255.5" y="-100.6" font-family="Times,serif" font-size="18.00">plays hockey?</text>
</g>
<!-- node9&#45;&gt;node10 -->
<g id="edge8" class="edge">
<title>node9&#45;&gt;node10</title>
<path fill="none" stroke="green" d="M339.25,-173.8C323.6,-161.13 302.11,-143.73 284.82,-129.74"/>
<polygon fill="green" stroke="green" points="286.69,-126.75 276.72,-123.18 282.29,-132.19 286.69,-126.75"/>
<text text-anchor="middle" x="323" y="-144.8" font-family="Times,serif" font-size="14.00">да</text>
</g>
<!-- node13 -->
<g id="node13" class="node">
<title>node13</title>
<polygon fill="pink" stroke="black" points="419.5,-123 345.5,-123 345.5,-87 419.5,-87 419.5,-123"/>
<text text-anchor="middle" x="382.5" y="-100.6" font-family="Times,serif" font-size="18.00">Dimas</text>
</g>
<!-- node9&#45;&gt;node13 -->
<g id="edge11" class="edge">
<title>node9&#45;&gt;node13</title>
<path fill="none" stroke="red" d="M364.95,-173.8C367.96,-162.16 372.01,-146.55 375.45,-133.24"/>
<polygon fill="red" stroke="red" points="378.94,-133.73 378.05,-123.18 372.16,-131.98 378.94,-133.73"/>
<text text-anchor="middle" x="386" y="-144.8" font-family="Times,serif" font-size="14.00">нет</text>
</g>
<!-- node11 -->
<g id="node11" class="node">
<title>node11</title>
<polygon fill="pink" stroke="black" points="245.5,-36 165.5,-36 165.5,0 245.5,0 245.5,-36"/>
<text text-anchor="middle" x="205.5" y="-13.6" font-family="Times,serif" font-size="18.00">Serega</text>
</g>
<!-- node10&#45;&gt;node11 -->
<g id="edge9" class="edge">
<title>node10&#45;&gt;node11</title>
<path fill="none" stroke="green" d="M245.38,-86.8C238.33,-74.82 228.8,-58.62 220.83,-45.06"/>
<polygon fill="green" stroke="green" points="223.69,-43.02 215.6,-36.18 217.66,-46.57 223.69,-43.02"/>
<text text-anchor="middle" x="242" y="-57.8" font-family="Times,serif" font-size="14.00">да</text>
</g>
<!-- node12 -->
<g id="node12" class="node">
<title>node12</title>
<polygon fill="pink" stroke="black" points="347,-36 264,-36 264,0 347,0 347,-36"/>
<text text-anchor="middle" x="305.5" y="-13.6" font-family="Times,serif" font-size="18.00">Kirpich</text>
</g>
<!-- node10&#45;&gt;node12 -->
<g id="edge10" class="edge">
<title>node10&#45;&gt;node12</title>
<path fill="none" stroke="red" d="M265.62,-86.8C272.67,-74.82 282.2,-58.62 290.17,-45.06"/>
<polygon fill="red" stroke="red" points="293.34,-46.57 295.4,-36.18 287.31,-43.02 293.34,-46.57"/>
<text text-anchor="middle" x="296" y="-57.8" font-family="Times,serif" font-size="14.00">нет</text>
</g>
<!-- node15 -->
<g id="node15" class="node">
<title>node15</title>
<polygon fill="pink" stroke="black" points="561.5,-123 481.5,-123 481.5,-87 561.5,-87 561.5,-123"/>
<text text-anchor="middle" x="521.5" y="-100.6" font-family="Times,serif" font-size="18.00">Vitalya</text>
</g>
<!-- node14&#45;&gt;node15 -->
<g id="edge12" class="edge">
<title>node14&#45;&gt;node15</title>
<path fill="none" stroke="green" d="M539.05,-173.8C536.04,-162.16 531.99,-146.55 528.55,-133.24"/>
<polygon fill="green" stroke="green" points="531.84,-131.98 525.95,-123.18 525.06,-133.73 531.84,-131.98"/>
<text text-anchor="middle" x="543" y="-144.8" font-family="Times,serif" font-size="14.00">да</text>
</g>
<!-- node16 -->
<g id="node16" class="node">
<title>node16</title>
<polygon fill="pink" stroke="black" points="641.5,-123 579.5,-123 579.5,-87 641.5,-87 641.5,-123"/>
<text text-anchor="middle" x="610.5" y="-100.6" font-family="Times,serif" font-size="18.00">Kirill</text>
</g>
<!-- node14&#45;&gt;node16 -->
<g id="edge13" class="edge">
<title>node14&#45;&gt;node16</title>
<path fill="none" stroke="red" d="M557.06,-173.8C566.68,-161.59 579.77,-144.99 590.58,-131.28"/>
<polygon fill="red" stroke="red" points="593.52,-133.2 596.96,-123.18 588.02,-128.86 593.52,-133.2"/>
<text text-anchor="middle" x="594" y="-144.8" font-family="Times,serif" font-size="14.00">нет</text>
</g>
<!-- node19 -->
<g id="node19" class="node">
<title>node19</title>
<polygon fill="pink" stroke="black" points="880,-384 723,-384 723,-348 880,-348 880,-384"/>
<text text-anchor="middle" x="801.5" y="-361.6" font-family="Times,serif" font-size="18.00">plays volleball?</text>
</g>
<!-- node18&#45;&gt;node19 -->
<g id="edge17" class="edge">
<title>node18&#45;&gt;node19</title>
<path fill="none" stroke="green" d="M883.66,-434.8C868.3,-422.13 847.22,-404.73 830.26,-390.74"/>
<polygon fill="green" stroke="green" points="832.25,-387.84 822.31,-384.18 827.8,-393.24 832.25,-387.84"/>
<text text-anchor="middle" x="868" y="-405.8" font-family="Times,serif" font-size="14.00">да</text>
</g>
<!-- node24 -->
<g id="node24" class="node">
<title>node24</title>
<polygon fill="pink" stroke="black" points="1047,-384 898,-384 898,-348 1047,-348 1047,-384"/>
<text text-anchor="middle" x="972.5" y="-361.6" font-family="Times,serif" font-size="18.00">plays football?</text>
</g>
<!-- node18&#45;&gt;node24 -->
<g id="edge24" class="edge">
<title>node18&#45;&gt;node24</title>
<path fill="none" stroke="red" d="M918.26,-434.8C928.03,-422.59 941.31,-405.99 952.28,-392.28"/>
<polygon fill="red" stroke="red" points="955.25,-394.17 958.76,-384.18 949.78,-389.8 955.25,-394.17"/>
<text text-anchor="middle" x="956" y="-405.8" font-family="Times,serif" font-size="14.00">нет</text>
</g>
<!-- node20 -->
<g id="node20" class="node">
<title>node20</title>
<polygon fill="pink" stroke="black" points="815,-297 666,-297 666,-261 815,-261 815,-297"/>
<text text-anchor="middle" x="740.5" y="-274.6" font-family="Times,serif" font-size="18.00">at 11th grade?</text>
</g>
<!-- node19&#45;&gt;node20 -->
<g id="edge18" class="edge">
<title>node19&#45;&gt;node20</title>
<path fill="none" stroke="green" d="M789.16,-347.8C780.47,-335.7 768.71,-319.3 758.92,-305.67"/>
<polygon fill="green" stroke="green" points="761.5,-303.26 752.83,-297.18 755.81,-307.34 761.5,-303.26"/>
<text text-anchor="middle" x="784" y="-318.8" font-family="Times,serif" font-size="14.00">да</text>
</g>
<!-- node23 -->
<g id="node23" class="node">
<title>node23</title>
<polygon fill="pink" stroke="black" points="913.5,-297 833.5,-297 833.5,-261 913.5,-261 913.5,-297"/>
<text text-anchor="middle" x="873.5" y="-274.6" font-family="Times,serif" font-size="18.00">Rodion</text>
</g>
<!-- node19&#45;&gt;node23 -->
<g id="edge21" class="edge">
<title>node19&#45;&gt;node23</title>
<path fill="none" stroke="red" d="M816.07,-347.8C826.51,-335.47 840.74,-318.68 852.42,-304.89"/>
<polygon fill="red" stroke="red" points="855.16,-307.07 858.95,-297.18 849.82,-302.54 855.16,-307.07"/>
<text text-anchor="middle" x="855" y="-318.8" font-family="Times,serif" font-size="14.00">нет</text>
</g>
<!-- node21 -->
<g id="node21" class="node">
<title>node21</title>
<polygon fill="pink" stroke="black" points="823.5,-210 657.5,-210 657.5,-174 823.5,-174 823.5,-210"/>
<text text-anchor="middle" x="740.5" y="-187.6" font-family="Times,serif" font-size="18.00">Sergey Romadin</text>
</g>
<!-- node20&#45;&gt;node21 -->
<g id="edge19" class="edge">
<title>node20&#45;&gt;node21</title>
<path fill="none" stroke="green" d="M740.5,-260.8C740.5,-249.16 740.5,-233.55 740.5,-220.24"/>
<polygon fill="green" stroke="green" points="744,-220.18 740.5,-210.18 737,-220.18 744,-220.18"/>
<text text-anchor="middle" x="749" y="-231.8" font-family="Times,serif" font-size="14.00">да</text>
</g>
<!-- node22 -->
<g id="node22" class="node">
<title>node22</title>
<polygon fill="pink" stroke="black" points="913.5,-210 841.5,-210 841.5,-174 913.5,-174 913.5,-210"/>
<text text-anchor="middle" x="877.5" y="-187.6" font-family="Times,serif" font-size="18.00">Misha</text>
</g>
<!-- node20&#45;&gt;node22 -->
<g id="edge20" class="edge">
<title>node20&#45;&gt;node22</title>
<path fill="none" stroke="red" d="M768.22,-260.8C789.21,-247.78 818.22,-229.78 841.07,-215.6"/>
<polygon fill="red" stroke="red" points="843.17,-218.42 849.82,-210.18 839.47,-212.47 843.17,-218.42"/>
<text text-anchor="middle" x="830" y="-231.8" font-family="Times,serif" font-size="14.00">нет</text>
</g>
<!-- node25 -->
<g id="node25" class="node">
<title>node25</title>
<polygon fill="pink" stroke="black" points="1013.5,-297 931.5,-297 931.5,-261 1013.5,-261 1013.5,-297"/>
<text text-anchor="middle" x="972.5" y="-274.6" font-family="Times,serif" font-size="18.00">Kirill K</text>
</g>
<!-- node24&#45;&gt;node25 -->
<g id="edge22" class="edge">
<title>node24&#45;&gt;node25</title>
<path fill="none" stroke="green" d="M972.5,-347.8C972.5,-336.16 972.5,-320.55 972.5,-307.24"/>
<polygon fill="green" stroke="green" points="976,-307.18 972.5,-297.18 969,-307.18 976,-307.18"/>
<text text-anchor="middle" x="981" y="-318.8" font-family="Times,serif" font-size="14.00">да</text>
</g>
<!-- node26 -->
<g id="node26" class="node">
<title>node26</title>
<polygon fill="pink" stroke="black" points="1089,-297 1032,-297 1032,-261 1089,-261 1089,-297"/>
<text text-anchor="middle" x="1060.5" y="-274.6" font-family="Times,serif" font-size="18.00">Vlad</text>
</g>
<!-- node24&#45;&gt;node26 -->
<g id="edge23" class="edge">
<title>node24&#45;&gt;node26</title>
<path fill="none" stroke="red" d="M990.31,-347.8C1003.19,-335.36 1020.78,-318.36 1035.13,-304.5"/>
<polygon fill="red" stroke="red" points="1037.96,-306.64 1042.72,-297.18 1033.09,-301.61 1037.96,-306.64"/>
<text text-anchor="middle" x="1035" y="-318.8" font-family="Times,serif" font-size="14.00">нет</text>
</g>
<!-- node28 -->
<g id="node28" class="node">
<title>node28</title>
<polygon fill="pink" stroke="black" points="1199.5,-471 1035.5,-471 1035.5,-435 1199.5,-435 1199.5,-471"/>
<text text-anchor="middle" x="1117.5" y="-448.6" font-family="Times,serif" font-size="18.00">lives in London?</text>
</g>
<!-- node27&#45;&gt;node28 -->
<g id="edge26" class="edge">
<title>node27&#45;&gt;node28</title>
<path fill="none" stroke="green" d="M1117.5,-521.8C1117.5,-510.16 1117.5,-494.55 1117.5,-481.24"/>
<polygon fill="green" stroke="green" points="1121,-481.18 1117.5,-471.18 1114,-481.18 1121,-481.18"/>
<text text-anchor="middle" x="1126" y="-492.8" font-family="Times,serif" font-size="14.00">да</text>
</g>
<!-- node33 -->
<g id="node33" class="node">
<title>node33</title>
<polygon fill="pink" stroke="black" points="1427.5,-471 1339.5,-471 1339.5,-435 1427.5,-435 1427.5,-471"/>
<text text-anchor="middle" x="1383.5" y="-448.6" font-family="Times,serif" font-size="18.00">animal?</text>
</g>
<!-- node27&#45;&gt;node33 -->
<g id="edge37" class="edge">
<title>node27&#45;&gt;node33</title>
<path fill="none" stroke="red" d="M1171.01,-521.9C1217.18,-507.15 1283.55,-485.94 1329.78,-471.17"/>
<polygon fill="red" stroke="red" points="1330.87,-474.49 1339.33,-468.12 1328.74,-467.83 1330.87,-474.49"/>
<text text-anchor="middle" x="1279" y="-492.8" font-family="Times,serif" font-size="14.00">нет</text>
</g>
<!-- node29 -->
<g id="node29" class="node">
<title>node29</title>
<polygon fill="pink" stroke="black" points="1126.5,-384 1064.5,-384 1064.5,-348 1126.5,-348 1126.5,-384"/>
<text text-anchor="middle" x="1095.5" y="-361.6" font-family="Times,serif" font-size="18.00">Anya</text>
</g>
<!-- node28&#45;&gt;node29 -->
<g id="edge27" class="edge">
<title>node28&#45;&gt;node29</title>
<path fill="none" stroke="green" d="M1113.05,-434.8C1110.04,-423.16 1105.99,-407.55 1102.55,-394.24"/>
<polygon fill="green" stroke="green" points="1105.84,-392.98 1099.95,-384.18 1099.06,-394.73 1105.84,-392.98"/>
<text text-anchor="middle" x="1117" y="-405.8" font-family="Times,serif" font-size="14.00">да</text>
</g>
<!-- node30 -->
<g id="node30" class="node">
<title>node30</title>
<polygon fill="pink" stroke="black" points="1330,-384 1145,-384 1145,-348 1330,-348 1330,-384"/>
<text text-anchor="middle" x="1237.5" y="-361.6" font-family="Times,serif" font-size="18.00">Studies at Letovo?</text>
</g>
<!-- node28&#45;&gt;node30 -->
<g id="edge30" class="edge">
<title>node28&#45;&gt;node30</title>
<path fill="none" stroke="red" d="M1141.78,-434.8C1160,-421.9 1185.12,-404.1 1205.06,-389.98"/>
<polygon fill="red" stroke="red" points="1207.12,-392.81 1213.25,-384.18 1203.07,-387.1 1207.12,-392.81"/>
<text text-anchor="middle" x="1198" y="-405.8" font-family="Times,serif" font-size="14.00">нет</text>
</g>
<!-- node31 -->
<g id="node31" class="node">
<title>node31</title>
<polygon fill="pink" stroke="black" points="1219,-297 1116,-297 1116,-261 1219,-261 1219,-297"/>
<text text-anchor="middle" x="1167.5" y="-274.6" font-family="Times,serif" font-size="18.00">Sashenka</text>
</g>
<!-- node30&#45;&gt;node31 -->
<g id="edge28" class="edge">
<title>node30&#45;&gt;node31</title>
<path fill="none" stroke="green" d="M1223.33,-347.8C1213.28,-335.59 1199.61,-318.99 1188.32,-305.28"/>
<polygon fill="green" stroke="green" points="1190.7,-302.67 1181.64,-297.18 1185.3,-307.12 1190.7,-302.67"/>
<text text-anchor="middle" x="1216" y="-318.8" font-family="Times,serif" font-size="14.00">да</text>
</g>
<!-- node32 -->
<g id="node32" class="node">
<title>node32</title>
<polygon fill="pink" stroke="black" points="1314,-297 1237,-297 1237,-261 1314,-261 1314,-297"/>
<text text-anchor="middle" x="1275.5" y="-274.6" font-family="Times,serif" font-size="18.00">Masha</text>
</g>
<!-- node30&#45;&gt;node32 -->
<g id="edge29" class="edge">
<title>node30&#45;&gt;node32</title>
<path fill="none" stroke="red" d="M1245.19,-347.8C1250.5,-335.93 1257.65,-319.93 1263.68,-306.45"/>
<polygon fill="red" stroke="red" points="1266.94,-307.73 1267.82,-297.18 1260.54,-304.88 1266.94,-307.73"/>
<text text-anchor="middle" x="1272" y="-318.8" font-family="Times,serif" font-size="14.00">нет</text>
</g>
<!-- node34 -->
<g id="node34" class="node">
<title>node34</title>
<polygon fill="pink" stroke="black" points="1419,-384 1348,-384 1348,-348 1419,-348 1419,-384"/>
<text text-anchor="middle" x="1383.5" y="-361.6" font-family="Times,serif" font-size="18.00">a cat?</text>
</g>
<!-- node33&#45;&gt;node34 -->
<g id="edge31" class="edge">
<title>node33&#45;&gt;node34</title>
<path fill="none" stroke="green" d="M1383.5,-434.8C1383.5,-423.16 1383.5,-407.55 1383.5,-394.24"/>
<polygon fill="green" stroke="green" points="1387,-394.18 1383.5,-384.18 1380,-394.18 1387,-394.18"/>
<text text-anchor="middle" x="1392" y="-405.8" font-family="Times,serif" font-size="14.00">да</text>
</g>
<!-- node39 -->
<g id="node39" class="node">
<title>node39</title>
<polygon fill="pink" stroke="black" points="1529.5,-384 1437.5,-384 1437.5,-348 1529.5,-348 1529.5,-384"/>
<text text-anchor="middle" x="1483.5" y="-361.6" font-family="Times,serif" font-size="18.00">Noname</text>
</g>
<!-- node33&#45;&gt;node39 -->
<g id="edge36" class="edge">
<title>node33&#45;&gt;node39</title>
<path fill="none" stroke="red" d="M1403.74,-434.8C1418.65,-422.13 1439.11,-404.73 1455.57,-390.74"/>
<polygon fill="red" stroke="red" points="1457.94,-393.32 1463.29,-384.18 1453.41,-387.99 1457.94,-393.32"/>
<text text-anchor="middle" x="1452" y="-405.8" font-family="Times,serif" font-size="14.00">нет</text>
</g>
<!-- node35 -->
<g id="node35" class="node">
<title>node35</title>
<polygon fill="pink" stroke="black" points="1419.5,-297 1337.5,-297 1337.5,-261 1419.5,-261 1419.5,-297"/>
<text text-anchor="middle" x="1378.5" y="-274.6" font-family="Times,serif" font-size="18.00">Pushok</text>
</g>
<!-- node34&#45;&gt;node35 -->
<g id="edge32" class="edge">
<title>node34&#45;&gt;node35</title>
<path fill="none" stroke="green" d="M1382.49,-347.8C1381.8,-336.16 1380.89,-320.55 1380.1,-307.24"/>
<polygon fill="green" stroke="green" points="1383.59,-306.95 1379.51,-297.18 1376.6,-307.36 1383.59,-306.95"/>
<text text-anchor="middle" x="1390" y="-318.8" font-family="Times,serif" font-size="14.00">да</text>
</g>
<!-- node36 -->
<g id="node36" class="node">
<title>node36</title>
<polygon fill="pink" stroke="black" points="1575.5,-297 1437.5,-297 1437.5,-261 1575.5,-261 1575.5,-297"/>
<text text-anchor="middle" x="1506.5" y="-274.6" font-family="Times,serif" font-size="18.00">a guinea pig?</text>
</g>
<!-- node34&#45;&gt;node36 -->
<g id="edge35" class="edge">
<title>node34&#45;&gt;node36</title>
<path fill="none" stroke="red" d="M1408.39,-347.8C1427.06,-334.9 1452.81,-317.1 1473.25,-302.98"/>
<polygon fill="red" stroke="red" points="1475.41,-305.74 1481.65,-297.18 1471.43,-299.98 1475.41,-305.74"/>
<text text-anchor="middle" x="1465" y="-318.8" font-family="Times,serif" font-size="14.00">нет</text>
</g>
<!-- node37 -->
<g id="node37" class="node">
<title>node37</title>
<polygon fill="pink" stroke="black" points="1504.5,-210 1408.5,-210 1408.5,-174 1504.5,-174 1504.5,-210"/>
<text text-anchor="middle" x="1456.5" y="-187.6" font-family="Times,serif" font-size="18.00">Paramon</text>
</g>
<!-- node36&#45;&gt;node37 -->
<g id="edge33" class="edge">
<title>node36&#45;&gt;node37</title>
<path fill="none" stroke="green" d="M1496.38,-260.8C1489.33,-248.82 1479.8,-232.62 1471.83,-219.06"/>
<polygon fill="green" stroke="green" points="1474.69,-217.02 1466.6,-210.18 1468.66,-220.57 1474.69,-217.02"/>
<text text-anchor="middle" x="1492" y="-231.8" font-family="Times,serif" font-size="14.00">да</text>
</g>
<!-- node38 -->
<g id="node38" class="node">
<title>node38</title>
<polygon fill="pink" stroke="black" points="1590.5,-210 1522.5,-210 1522.5,-174 1590.5,-174 1590.5,-210"/>
<text text-anchor="middle" x="1556.5" y="-187.6" font-family="Times,serif" font-size="18.00">Black</text>
</g>
<!-- node36&#45;&gt;node38 -->
<g id="edge34" class="edge">
<title>node36&#45;&gt;node38</title>
<path fill="none" stroke="red" d="M1516.62,-260.8C1523.67,-248.82 1533.2,-232.62 1541.17,-219.06"/>
<polygon fill="red" stroke="red" points="1544.34,-220.57 1546.4,-210.18 1538.31,-217.02 1544.34,-220.57"/>
<text text-anchor="middle" x="1546" y="-231.8" font-family="Times,serif" font-size="14.00">нет</text>
</g>
</g>
</svg>
