<?xml version="1.0" encoding="UTF-8" standalone="no"?>
<!DOCTYPE svg PUBLIC "-//W3C//DTD SVG 1.1//EN"
 "http://www.w3.org/Graphics/SVG/1.1/DTD/svg11.dtd">
<!-- Generated by graphviz version 2.43.0 (0)
 -->
<!-- Title: G Pages: 1 -->
<svg width="817pt" height="861pt"
 viewBox="0.00 0.00 816.50 861.00" xmlns="http://www.w3.org/2000/svg" xmlns:xlink="http://www.w3.org/1999/xlink">
<g id="graph0" class="graph" transform="scale(1 1) rotate(0) translate(4 857)">
<title>G</title>
<polygon fill="white" stroke="transparent" points="-4,4 -4,-857 812.5,-857 812.5,4 -4,4"/>
<!-- node21 -->
<g id="node1" class="node">
<title>node21</title>
<polygon fill="lightblue" stroke="black" points="159,-762.5 159,-852.5 361,-852.5 361,-762.5 159,-762.5"/>
<text text-anchor="middle" x="260" y="-840.5" font-family="Times,serif" font-size="10.00">data:</text>
<text text-anchor="middle" x="260" y="-829.5" font-family="Times,serif" font-size="10.00"> has a square body shape</text>
<polyline fill="none" stroke="black" points="159,-822.5 361,-822.5 "/>
<text text-anchor="middle" x="260" y="-810.5" font-family="Times,serif" font-size="10.00">prev:</text>
<text text-anchor="middle" x="260" y="-799.5" font-family="Times,serif" font-size="10.00">(nil)</text>
<polyline fill="none" stroke="black" points="159,-792.5 361,-792.5 "/>
<text text-anchor="middle" x="209.5" y="-780.5" font-family="Times,serif" font-size="10.00">left:</text>
<text text-anchor="middle" x="209.5" y="-769.5" font-family="Times,serif" font-size="10.00">0x56390b521650</text>
<polyline fill="none" stroke="black" points="260,-762.5 260,-792.5 "/>
<text text-anchor="middle" x="310.5" y="-780.5" font-family="Times,serif" font-size="10.00">right:</text>
<text text-anchor="middle" x="310.5" y="-769.5" font-family="Times,serif" font-size="10.00">0x56390b521340</text>
</g>
<!-- node22 -->
<g id="node2" class="node">
<title>node22</title>
<polygon fill="lightblue" stroke="black" points="92,-635.5 92,-725.5 236,-725.5 236,-635.5 92,-635.5"/>
<text text-anchor="middle" x="164" y="-713.5" font-family="Times,serif" font-size="10.00">data:</text>
<text text-anchor="middle" x="164" y="-702.5" font-family="Times,serif" font-size="10.00"> secret square smesharik</text>
<polyline fill="none" stroke="black" points="92,-695.5 236,-695.5 "/>
<text text-anchor="middle" x="164" y="-683.5" font-family="Times,serif" font-size="10.00">prev:</text>
<text text-anchor="middle" x="164" y="-672.5" font-family="Times,serif" font-size="10.00">0x56390b5215e0</text>
<polyline fill="none" stroke="black" points="92,-665.5 236,-665.5 "/>
<text text-anchor="middle" x="126" y="-653.5" font-family="Times,serif" font-size="10.00">left:</text>
<text text-anchor="middle" x="126" y="-642.5" font-family="Times,serif" font-size="10.00">(nil)</text>
<polyline fill="none" stroke="black" points="160,-635.5 160,-665.5 "/>
<text text-anchor="middle" x="198" y="-653.5" font-family="Times,serif" font-size="10.00">right:</text>
<text text-anchor="middle" x="198" y="-642.5" font-family="Times,serif" font-size="10.00">(nil)</text>
</g>
<!-- node21&#45;&gt;node22 -->
<g id="edge1" class="edge">
<title>node21:left&#45;&gt;node22</title>
<path fill="none" stroke="black" d="M209,-762C209,-752.71 206.69,-743.5 203.11,-734.8"/>
<polygon fill="black" stroke="black" points="206.21,-733.16 198.79,-725.59 199.87,-736.13 206.21,-733.16"/>
</g>
<!-- node23 -->
<g id="node3" class="node">
<title>node23</title>
<polygon fill="lightblue" stroke="black" points="254,-635.5 254,-725.5 458,-725.5 458,-635.5 254,-635.5"/>
<text text-anchor="middle" x="356" y="-713.5" font-family="Times,serif" font-size="10.00">data:</text>
<text text-anchor="middle" x="356" y="-702.5" font-family="Times,serif" font-size="10.00"> child</text>
<polyline fill="none" stroke="black" points="254,-695.5 458,-695.5 "/>
<text text-anchor="middle" x="356" y="-683.5" font-family="Times,serif" font-size="10.00">prev:</text>
<text text-anchor="middle" x="356" y="-672.5" font-family="Times,serif" font-size="10.00">0x56390b5215e0</text>
<polyline fill="none" stroke="black" points="254,-665.5 458,-665.5 "/>
<text text-anchor="middle" x="305" y="-653.5" font-family="Times,serif" font-size="10.00">left:</text>
<text text-anchor="middle" x="305" y="-642.5" font-family="Times,serif" font-size="10.00">0x56390b5213b0</text>
<polyline fill="none" stroke="black" points="356,-635.5 356,-665.5 "/>
<text text-anchor="middle" x="407" y="-653.5" font-family="Times,serif" font-size="10.00">right:</text>
<text text-anchor="middle" x="407" y="-642.5" font-family="Times,serif" font-size="10.00">0x56390b522ba0</text>
</g>
<!-- node21&#45;&gt;node23 -->
<g id="edge18" class="edge">
<title>node21:right&#45;&gt;node23</title>
<path fill="none" stroke="black" d="M311,-762C311,-752.71 313.31,-743.5 316.89,-734.8"/>
<polygon fill="black" stroke="black" points="320.13,-736.13 321.21,-725.59 313.79,-733.16 320.13,-736.13"/>
</g>
<!-- node24 -->
<g id="node4" class="node">
<title>node24</title>
<polygon fill="lightblue" stroke="black" points="69,-508.5 69,-598.5 271,-598.5 271,-508.5 69,-508.5"/>
<text text-anchor="middle" x="170" y="-586.5" font-family="Times,serif" font-size="10.00">data:</text>
<text text-anchor="middle" x="170" y="-575.5" font-family="Times,serif" font-size="10.00"> has igolki</text>
<polyline fill="none" stroke="black" points="69,-568.5 271,-568.5 "/>
<text text-anchor="middle" x="170" y="-556.5" font-family="Times,serif" font-size="10.00">prev:</text>
<text text-anchor="middle" x="170" y="-545.5" font-family="Times,serif" font-size="10.00">0x56390b521340</text>
<polyline fill="none" stroke="black" points="69,-538.5 271,-538.5 "/>
<text text-anchor="middle" x="119.5" y="-526.5" font-family="Times,serif" font-size="10.00">left:</text>
<text text-anchor="middle" x="119.5" y="-515.5" font-family="Times,serif" font-size="10.00">0x56390b521420</text>
<polyline fill="none" stroke="black" points="170,-508.5 170,-538.5 "/>
<text text-anchor="middle" x="220.5" y="-526.5" font-family="Times,serif" font-size="10.00">right:</text>
<text text-anchor="middle" x="220.5" y="-515.5" font-family="Times,serif" font-size="10.00">0x56390b522970</text>
</g>
<!-- node23&#45;&gt;node24 -->
<g id="edge2" class="edge">
<title>node23:left&#45;&gt;node24</title>
<path fill="none" stroke="black" d="M253,-650.5C245.25,-650.5 249.46,-641.34 245,-635 238.13,-625.24 230.14,-615.44 222,-606.21"/>
<polygon fill="black" stroke="black" points="224.43,-603.69 215.13,-598.61 219.23,-608.38 224.43,-603.69"/>
</g>
<!-- node31 -->
<g id="node11" class="node">
<title>node31</title>
<polygon fill="lightblue" stroke="black" points="441,-508.5 441,-598.5 641,-598.5 641,-508.5 441,-508.5"/>
<text text-anchor="middle" x="541" y="-586.5" font-family="Times,serif" font-size="10.00">data:</text>
<text text-anchor="middle" x="541" y="-575.5" font-family="Times,serif" font-size="10.00"> adult</text>
<polyline fill="none" stroke="black" points="441,-568.5 641,-568.5 "/>
<text text-anchor="middle" x="541" y="-556.5" font-family="Times,serif" font-size="10.00">prev:</text>
<text text-anchor="middle" x="541" y="-545.5" font-family="Times,serif" font-size="10.00">0x56390b521340</text>
<polyline fill="none" stroke="black" points="441,-538.5 641,-538.5 "/>
<text text-anchor="middle" x="491.5" y="-526.5" font-family="Times,serif" font-size="10.00">left:</text>
<text text-anchor="middle" x="491.5" y="-515.5" font-family="Times,serif" font-size="10.00">0x56390b522c10</text>
<polyline fill="none" stroke="black" points="542,-508.5 542,-538.5 "/>
<text text-anchor="middle" x="591.5" y="-526.5" font-family="Times,serif" font-size="10.00">right:</text>
<text text-anchor="middle" x="591.5" y="-515.5" font-family="Times,serif" font-size="10.00">0x56390b522f20</text>
</g>
<!-- node23&#45;&gt;node31 -->
<g id="edge17" class="edge">
<title>node23:right&#45;&gt;node31</title>
<path fill="none" stroke="black" d="M459,-650.5C485.12,-650.5 504.7,-629.69 518.15,-607.45"/>
<polygon fill="black" stroke="black" points="521.31,-608.99 523.19,-598.57 515.22,-605.54 521.31,-608.99"/>
</g>
<!-- node25 -->
<g id="node5" class="node">
<title>node25</title>
<polygon fill="lightblue" stroke="black" points="0,-381.5 0,-471.5 102,-471.5 102,-381.5 0,-381.5"/>
<text text-anchor="middle" x="51" y="-459.5" font-family="Times,serif" font-size="10.00">data:</text>
<text text-anchor="middle" x="51" y="-448.5" font-family="Times,serif" font-size="10.00"> Ezhik</text>
<polyline fill="none" stroke="black" points="0,-441.5 102,-441.5 "/>
<text text-anchor="middle" x="51" y="-429.5" font-family="Times,serif" font-size="10.00">prev:</text>
<text text-anchor="middle" x="51" y="-418.5" font-family="Times,serif" font-size="10.00">0x56390b5213b0</text>
<polyline fill="none" stroke="black" points="0,-411.5 102,-411.5 "/>
<text text-anchor="middle" x="23.5" y="-399.5" font-family="Times,serif" font-size="10.00">left:</text>
<text text-anchor="middle" x="23.5" y="-388.5" font-family="Times,serif" font-size="10.00">(nil)</text>
<polyline fill="none" stroke="black" points="47,-381.5 47,-411.5 "/>
<text text-anchor="middle" x="74.5" y="-399.5" font-family="Times,serif" font-size="10.00">right:</text>
<text text-anchor="middle" x="74.5" y="-388.5" font-family="Times,serif" font-size="10.00">(nil)</text>
</g>
<!-- node24&#45;&gt;node25 -->
<g id="edge3" class="edge">
<title>node24:left&#45;&gt;node25</title>
<path fill="none" stroke="black" d="M68,-523.5C48.18,-523.5 42.94,-503.42 43.08,-481.63"/>
<polygon fill="black" stroke="black" points="46.58,-481.7 43.49,-471.57 39.58,-481.42 46.58,-481.7"/>
</g>
<!-- node26 -->
<g id="node6" class="node">
<title>node26</title>
<polygon fill="lightblue" stroke="black" points="120,-381.5 120,-471.5 322,-471.5 322,-381.5 120,-381.5"/>
<text text-anchor="middle" x="221" y="-459.5" font-family="Times,serif" font-size="10.00">data:</text>
<text text-anchor="middle" x="221" y="-448.5" font-family="Times,serif" font-size="10.00"> girl</text>
<polyline fill="none" stroke="black" points="120,-441.5 322,-441.5 "/>
<text text-anchor="middle" x="221" y="-429.5" font-family="Times,serif" font-size="10.00">prev:</text>
<text text-anchor="middle" x="221" y="-418.5" font-family="Times,serif" font-size="10.00">0x56390b5213b0</text>
<polyline fill="none" stroke="black" points="120,-411.5 322,-411.5 "/>
<text text-anchor="middle" x="170.5" y="-399.5" font-family="Times,serif" font-size="10.00">left:</text>
<text text-anchor="middle" x="170.5" y="-388.5" font-family="Times,serif" font-size="10.00">0x56390b5229e0</text>
<polyline fill="none" stroke="black" points="221,-381.5 221,-411.5 "/>
<text text-anchor="middle" x="271.5" y="-399.5" font-family="Times,serif" font-size="10.00">right:</text>
<text text-anchor="middle" x="271.5" y="-388.5" font-family="Times,serif" font-size="10.00">0x56390b522a50</text>
</g>
<!-- node24&#45;&gt;node26 -->
<g id="edge8" class="edge">
<title>node24:right&#45;&gt;node26</title>
<path fill="none" stroke="black" d="M221,-508C221,-499.56 221,-490.63 221,-481.9"/>
<polygon fill="black" stroke="black" points="224.5,-481.79 221,-471.79 217.5,-481.79 224.5,-481.79"/>
</g>
<!-- node27 -->
<g id="node7" class="node">
<title>node27</title>
<polygon fill="lightblue" stroke="black" points="51.5,-254.5 51.5,-344.5 152.5,-344.5 152.5,-254.5 51.5,-254.5"/>
<text text-anchor="middle" x="102" y="-332.5" font-family="Times,serif" font-size="10.00">data:</text>
<text text-anchor="middle" x="102" y="-321.5" font-family="Times,serif" font-size="10.00"> Nyusha</text>
<polyline fill="none" stroke="black" points="51.5,-314.5 152.5,-314.5 "/>
<text text-anchor="middle" x="102" y="-302.5" font-family="Times,serif" font-size="10.00">prev:</text>
<text text-anchor="middle" x="102" y="-291.5" font-family="Times,serif" font-size="10.00">0x56390b522970</text>
<polyline fill="none" stroke="black" points="51.5,-284.5 152.5,-284.5 "/>
<text text-anchor="middle" x="75" y="-272.5" font-family="Times,serif" font-size="10.00">left:</text>
<text text-anchor="middle" x="75" y="-261.5" font-family="Times,serif" font-size="10.00">(nil)</text>
<polyline fill="none" stroke="black" points="98.5,-254.5 98.5,-284.5 "/>
<text text-anchor="middle" x="125.5" y="-272.5" font-family="Times,serif" font-size="10.00">right:</text>
<text text-anchor="middle" x="125.5" y="-261.5" font-family="Times,serif" font-size="10.00">(nil)</text>
</g>
<!-- node26&#45;&gt;node27 -->
<g id="edge4" class="edge">
<title>node26:left&#45;&gt;node27</title>
<path fill="none" stroke="black" d="M119,-396.5C114.05,-396.5 110.07,-376.42 107.21,-354.63"/>
<polygon fill="black" stroke="black" points="110.67,-354.07 105.97,-344.57 103.72,-354.92 110.67,-354.07"/>
</g>
<!-- node28 -->
<g id="node8" class="node">
<title>node28</title>
<polygon fill="lightblue" stroke="black" points="170.5,-254.5 170.5,-344.5 373.5,-344.5 373.5,-254.5 170.5,-254.5"/>
<text text-anchor="middle" x="272" y="-332.5" font-family="Times,serif" font-size="10.00">data:</text>
<text text-anchor="middle" x="272" y="-321.5" font-family="Times,serif" font-size="10.00"> write poems</text>
<polyline fill="none" stroke="black" points="170.5,-314.5 373.5,-314.5 "/>
<text text-anchor="middle" x="272" y="-302.5" font-family="Times,serif" font-size="10.00">prev:</text>
<text text-anchor="middle" x="272" y="-291.5" font-family="Times,serif" font-size="10.00">0x56390b522970</text>
<polyline fill="none" stroke="black" points="170.5,-284.5 373.5,-284.5 "/>
<text text-anchor="middle" x="221" y="-272.5" font-family="Times,serif" font-size="10.00">left:</text>
<text text-anchor="middle" x="221" y="-261.5" font-family="Times,serif" font-size="10.00">0x56390b522ac0</text>
<polyline fill="none" stroke="black" points="271.5,-254.5 271.5,-284.5 "/>
<text text-anchor="middle" x="322.5" y="-272.5" font-family="Times,serif" font-size="10.00">right:</text>
<text text-anchor="middle" x="322.5" y="-261.5" font-family="Times,serif" font-size="10.00">0x56390b522b30</text>
</g>
<!-- node26&#45;&gt;node28 -->
<g id="edge7" class="edge">
<title>node26:right&#45;&gt;node28</title>
<path fill="none" stroke="black" d="M272,-381C272,-372.56 272,-363.63 272,-354.9"/>
<polygon fill="black" stroke="black" points="275.5,-354.79 272,-344.79 268.5,-354.79 275.5,-354.79"/>
</g>
<!-- node29 -->
<g id="node9" class="node">
<title>node29</title>
<polygon fill="lightblue" stroke="black" points="161.5,-127.5 161.5,-217.5 262.5,-217.5 262.5,-127.5 161.5,-127.5"/>
<text text-anchor="middle" x="212" y="-205.5" font-family="Times,serif" font-size="10.00">data:</text>
<text text-anchor="middle" x="212" y="-194.5" font-family="Times,serif" font-size="10.00"> Barash</text>
<polyline fill="none" stroke="black" points="161.5,-187.5 262.5,-187.5 "/>
<text text-anchor="middle" x="212" y="-175.5" font-family="Times,serif" font-size="10.00">prev:</text>
<text text-anchor="middle" x="212" y="-164.5" font-family="Times,serif" font-size="10.00">0x56390b522a50</text>
<polyline fill="none" stroke="black" points="161.5,-157.5 262.5,-157.5 "/>
<text text-anchor="middle" x="185" y="-145.5" font-family="Times,serif" font-size="10.00">left:</text>
<text text-anchor="middle" x="185" y="-134.5" font-family="Times,serif" font-size="10.00">(nil)</text>
<polyline fill="none" stroke="black" points="208.5,-127.5 208.5,-157.5 "/>
<text text-anchor="middle" x="235.5" y="-145.5" font-family="Times,serif" font-size="10.00">right:</text>
<text text-anchor="middle" x="235.5" y="-134.5" font-family="Times,serif" font-size="10.00">(nil)</text>
</g>
<!-- node28&#45;&gt;node29 -->
<g id="edge5" class="edge">
<title>node28:left&#45;&gt;node29</title>
<path fill="none" stroke="black" d="M221,-254C221,-245.51 220.5,-236.55 219.73,-227.81"/>
<polygon fill="black" stroke="black" points="223.2,-227.29 218.73,-217.69 216.24,-227.99 223.2,-227.29"/>
</g>
<!-- node30 -->
<g id="node10" class="node">
<title>node30</title>
<polygon fill="lightblue" stroke="black" points="280.5,-127.5 280.5,-217.5 381.5,-217.5 381.5,-127.5 280.5,-127.5"/>
<text text-anchor="middle" x="331" y="-205.5" font-family="Times,serif" font-size="10.00">data:</text>
<text text-anchor="middle" x="331" y="-194.5" font-family="Times,serif" font-size="10.00"> Krosh</text>
<polyline fill="none" stroke="black" points="280.5,-187.5 381.5,-187.5 "/>
<text text-anchor="middle" x="331" y="-175.5" font-family="Times,serif" font-size="10.00">prev:</text>
<text text-anchor="middle" x="331" y="-164.5" font-family="Times,serif" font-size="10.00">0x56390b522a50</text>
<polyline fill="none" stroke="black" points="280.5,-157.5 381.5,-157.5 "/>
<text text-anchor="middle" x="304" y="-145.5" font-family="Times,serif" font-size="10.00">left:</text>
<text text-anchor="middle" x="304" y="-134.5" font-family="Times,serif" font-size="10.00">(nil)</text>
<polyline fill="none" stroke="black" points="327.5,-127.5 327.5,-157.5 "/>
<text text-anchor="middle" x="354.5" y="-145.5" font-family="Times,serif" font-size="10.00">right:</text>
<text text-anchor="middle" x="354.5" y="-134.5" font-family="Times,serif" font-size="10.00">(nil)</text>
</g>
<!-- node28&#45;&gt;node30 -->
<g id="edge6" class="edge">
<title>node28:right&#45;&gt;node30</title>
<path fill="none" stroke="black" d="M323,-254C323,-245.52 323.44,-236.56 324.13,-227.83"/>
<polygon fill="black" stroke="black" points="327.62,-227.98 325.02,-217.71 320.65,-227.36 327.62,-227.98"/>
</g>
<!-- node32 -->
<g id="node12" class="node">
<title>node32</title>
<polygon fill="lightblue" stroke="black" points="391.5,-381.5 391.5,-471.5 590.5,-471.5 590.5,-381.5 391.5,-381.5"/>
<text text-anchor="middle" x="491" y="-459.5" font-family="Times,serif" font-size="10.00">data:</text>
<text text-anchor="middle" x="491" y="-448.5" font-family="Times,serif" font-size="10.00"> likes honey</text>
<polyline fill="none" stroke="black" points="391.5,-441.5 590.5,-441.5 "/>
<text text-anchor="middle" x="491" y="-429.5" font-family="Times,serif" font-size="10.00">prev:</text>
<text text-anchor="middle" x="491" y="-418.5" font-family="Times,serif" font-size="10.00">0x56390b522ba0</text>
<polyline fill="none" stroke="black" points="391.5,-411.5 590.5,-411.5 "/>
<text text-anchor="middle" x="442" y="-399.5" font-family="Times,serif" font-size="10.00">left:</text>
<text text-anchor="middle" x="442" y="-388.5" font-family="Times,serif" font-size="10.00">0x56390b522c80</text>
<polyline fill="none" stroke="black" points="492.5,-381.5 492.5,-411.5 "/>
<text text-anchor="middle" x="541.5" y="-399.5" font-family="Times,serif" font-size="10.00">right:</text>
<text text-anchor="middle" x="541.5" y="-388.5" font-family="Times,serif" font-size="10.00">0x56390b522cf0</text>
</g>
<!-- node31&#45;&gt;node32 -->
<g id="edge9" class="edge">
<title>node31:left&#45;&gt;node32</title>
<path fill="none" stroke="black" d="M491,-508C491,-499.56 491,-490.63 491,-481.9"/>
<polygon fill="black" stroke="black" points="494.5,-481.79 491,-471.79 487.5,-481.79 494.5,-481.79"/>
</g>
<!-- node39 -->
<g id="node19" class="node">
<title>node39</title>
<polygon fill="lightblue" stroke="black" points="609,-381.5 609,-471.5 711,-471.5 711,-381.5 609,-381.5"/>
<text text-anchor="middle" x="660" y="-459.5" font-family="Times,serif" font-size="10.00">data:</text>
<text text-anchor="middle" x="660" y="-448.5" font-family="Times,serif" font-size="10.00"> Noname</text>
<polyline fill="none" stroke="black" points="609,-441.5 711,-441.5 "/>
<text text-anchor="middle" x="660" y="-429.5" font-family="Times,serif" font-size="10.00">prev:</text>
<text text-anchor="middle" x="660" y="-418.5" font-family="Times,serif" font-size="10.00">0x56390b522ba0</text>
<polyline fill="none" stroke="black" points="609,-411.5 711,-411.5 "/>
<text text-anchor="middle" x="632.5" y="-399.5" font-family="Times,serif" font-size="10.00">left:</text>
<text text-anchor="middle" x="632.5" y="-388.5" font-family="Times,serif" font-size="10.00">(nil)</text>
<polyline fill="none" stroke="black" points="656,-381.5 656,-411.5 "/>
<text text-anchor="middle" x="683.5" y="-399.5" font-family="Times,serif" font-size="10.00">right:</text>
<text text-anchor="middle" x="683.5" y="-388.5" font-family="Times,serif" font-size="10.00">(nil)</text>
</g>
<!-- node31&#45;&gt;node39 -->
<g id="edge16" class="edge">
<title>node31:right&#45;&gt;node39</title>
<path fill="none" stroke="black" d="M642,-523.5C661.85,-523.5 667.31,-503.42 667.39,-481.63"/>
<polygon fill="black" stroke="black" points="670.89,-481.45 667.08,-471.57 663.89,-481.67 670.89,-481.45"/>
</g>
<!-- node33 -->
<g id="node13" class="node">
<title>node33</title>
<polygon fill="lightblue" stroke="black" points="391.5,-254.5 391.5,-344.5 492.5,-344.5 492.5,-254.5 391.5,-254.5"/>
<text text-anchor="middle" x="442" y="-332.5" font-family="Times,serif" font-size="10.00">data:</text>
<text text-anchor="middle" x="442" y="-321.5" font-family="Times,serif" font-size="10.00"> Kopatych</text>
<polyline fill="none" stroke="black" points="391.5,-314.5 492.5,-314.5 "/>
<text text-anchor="middle" x="442" y="-302.5" font-family="Times,serif" font-size="10.00">prev:</text>
<text text-anchor="middle" x="442" y="-291.5" font-family="Times,serif" font-size="10.00">0x56390b522c10</text>
<polyline fill="none" stroke="black" points="391.5,-284.5 492.5,-284.5 "/>
<text text-anchor="middle" x="415" y="-272.5" font-family="Times,serif" font-size="10.00">left:</text>
<text text-anchor="middle" x="415" y="-261.5" font-family="Times,serif" font-size="10.00">(nil)</text>
<polyline fill="none" stroke="black" points="438.5,-254.5 438.5,-284.5 "/>
<text text-anchor="middle" x="465.5" y="-272.5" font-family="Times,serif" font-size="10.00">right:</text>
<text text-anchor="middle" x="465.5" y="-261.5" font-family="Times,serif" font-size="10.00">(nil)</text>
</g>
<!-- node32&#45;&gt;node33 -->
<g id="edge10" class="edge">
<title>node32:left&#45;&gt;node33</title>
<path fill="none" stroke="black" d="M442,-381C442,-372.56 442,-363.63 442,-354.9"/>
<polygon fill="black" stroke="black" points="445.5,-354.79 442,-344.79 438.5,-354.79 445.5,-354.79"/>
</g>
<!-- node34 -->
<g id="node14" class="node">
<title>node34</title>
<polygon fill="lightblue" stroke="black" points="510.5,-254.5 510.5,-344.5 715.5,-344.5 715.5,-254.5 510.5,-254.5"/>
<text text-anchor="middle" x="613" y="-332.5" font-family="Times,serif" font-size="10.00">data:</text>
<text text-anchor="middle" x="613" y="-321.5" font-family="Times,serif" font-size="10.00"> woman</text>
<polyline fill="none" stroke="black" points="510.5,-314.5 715.5,-314.5 "/>
<text text-anchor="middle" x="613" y="-302.5" font-family="Times,serif" font-size="10.00">prev:</text>
<text text-anchor="middle" x="613" y="-291.5" font-family="Times,serif" font-size="10.00">0x56390b522c10</text>
<polyline fill="none" stroke="black" points="510.5,-284.5 715.5,-284.5 "/>
<text text-anchor="middle" x="561.5" y="-272.5" font-family="Times,serif" font-size="10.00">left:</text>
<text text-anchor="middle" x="561.5" y="-261.5" font-family="Times,serif" font-size="10.00">0x56390b522d60</text>
<polyline fill="none" stroke="black" points="612.5,-254.5 612.5,-284.5 "/>
<text text-anchor="middle" x="664" y="-272.5" font-family="Times,serif" font-size="10.00">right:</text>
<text text-anchor="middle" x="664" y="-261.5" font-family="Times,serif" font-size="10.00">0x56390b522dd0</text>
</g>
<!-- node32&#45;&gt;node34 -->
<g id="edge15" class="edge">
<title>node32:right&#45;&gt;node34</title>
<path fill="none" stroke="black" d="M592,-396.5C594.5,-396.5 599.1,-376.42 603.36,-354.63"/>
<polygon fill="black" stroke="black" points="606.85,-355.05 605.29,-344.57 599.97,-353.73 606.85,-355.05"/>
</g>
<!-- node35 -->
<g id="node15" class="node">
<title>node35</title>
<polygon fill="lightblue" stroke="black" points="479,-127.5 479,-217.5 577,-217.5 577,-127.5 479,-127.5"/>
<text text-anchor="middle" x="528" y="-205.5" font-family="Times,serif" font-size="10.00">data:</text>
<text text-anchor="middle" x="528" y="-194.5" font-family="Times,serif" font-size="10.00"> Sovunia</text>
<polyline fill="none" stroke="black" points="479,-187.5 577,-187.5 "/>
<text text-anchor="middle" x="528" y="-175.5" font-family="Times,serif" font-size="10.00">prev:</text>
<text text-anchor="middle" x="528" y="-164.5" font-family="Times,serif" font-size="10.00">0x56390b522cf0</text>
<polyline fill="none" stroke="black" points="479,-157.5 577,-157.5 "/>
<text text-anchor="middle" x="501.5" y="-145.5" font-family="Times,serif" font-size="10.00">left:</text>
<text text-anchor="middle" x="501.5" y="-134.5" font-family="Times,serif" font-size="10.00">(nil)</text>
<polyline fill="none" stroke="black" points="524,-127.5 524,-157.5 "/>
<text text-anchor="middle" x="550.5" y="-145.5" font-family="Times,serif" font-size="10.00">right:</text>
<text text-anchor="middle" x="550.5" y="-134.5" font-family="Times,serif" font-size="10.00">(nil)</text>
</g>
<!-- node34&#45;&gt;node35 -->
<g id="edge11" class="edge">
<title>node34:left&#45;&gt;node35</title>
<path fill="none" stroke="black" d="M561,-254C561,-245.11 559.26,-236.05 556.57,-227.38"/>
<polygon fill="black" stroke="black" points="559.81,-226.04 553.18,-217.77 553.21,-228.37 559.81,-226.04"/>
</g>
<!-- node36 -->
<g id="node16" class="node">
<title>node36</title>
<polygon fill="lightblue" stroke="black" points="595.5,-127.5 595.5,-217.5 798.5,-217.5 798.5,-127.5 595.5,-127.5"/>
<text text-anchor="middle" x="697" y="-205.5" font-family="Times,serif" font-size="10.00">data:</text>
<text text-anchor="middle" x="697" y="-194.5" font-family="Times,serif" font-size="10.00"> engeneer</text>
<polyline fill="none" stroke="black" points="595.5,-187.5 798.5,-187.5 "/>
<text text-anchor="middle" x="697" y="-175.5" font-family="Times,serif" font-size="10.00">prev:</text>
<text text-anchor="middle" x="697" y="-164.5" font-family="Times,serif" font-size="10.00">0x56390b522cf0</text>
<polyline fill="none" stroke="black" points="595.5,-157.5 798.5,-157.5 "/>
<text text-anchor="middle" x="646" y="-145.5" font-family="Times,serif" font-size="10.00">left:</text>
<text text-anchor="middle" x="646" y="-134.5" font-family="Times,serif" font-size="10.00">0x56390b522e40</text>
<polyline fill="none" stroke="black" points="696.5,-127.5 696.5,-157.5 "/>
<text text-anchor="middle" x="747.5" y="-145.5" font-family="Times,serif" font-size="10.00">right:</text>
<text text-anchor="middle" x="747.5" y="-134.5" font-family="Times,serif" font-size="10.00">0x56390b522eb0</text>
</g>
<!-- node34&#45;&gt;node36 -->
<g id="edge14" class="edge">
<title>node34:right&#45;&gt;node36</title>
<path fill="none" stroke="black" d="M664,-254C664,-245.11 665.74,-236.05 668.43,-227.38"/>
<polygon fill="black" stroke="black" points="671.79,-228.37 671.82,-217.77 665.19,-226.04 671.79,-228.37"/>
</g>
<!-- node37 -->
<g id="node17" class="node">
<title>node37</title>
<polygon fill="lightblue" stroke="black" points="584.5,-0.5 584.5,-90.5 687.5,-90.5 687.5,-0.5 584.5,-0.5"/>
<text text-anchor="middle" x="636" y="-78.5" font-family="Times,serif" font-size="10.00">data:</text>
<text text-anchor="middle" x="636" y="-67.5" font-family="Times,serif" font-size="10.00"> Pin</text>
<polyline fill="none" stroke="black" points="584.5,-60.5 687.5,-60.5 "/>
<text text-anchor="middle" x="636" y="-48.5" font-family="Times,serif" font-size="10.00">prev:</text>
<text text-anchor="middle" x="636" y="-37.5" font-family="Times,serif" font-size="10.00">0x56390b522dd0</text>
<polyline fill="none" stroke="black" points="584.5,-30.5 687.5,-30.5 "/>
<text text-anchor="middle" x="608.5" y="-18.5" font-family="Times,serif" font-size="10.00">left:</text>
<text text-anchor="middle" x="608.5" y="-7.5" font-family="Times,serif" font-size="10.00">(nil)</text>
<polyline fill="none" stroke="black" points="632.5,-0.5 632.5,-30.5 "/>
<text text-anchor="middle" x="660" y="-18.5" font-family="Times,serif" font-size="10.00">right:</text>
<text text-anchor="middle" x="660" y="-7.5" font-family="Times,serif" font-size="10.00">(nil)</text>
</g>
<!-- node36&#45;&gt;node37 -->
<g id="edge12" class="edge">
<title>node36:left&#45;&gt;node37</title>
<path fill="none" stroke="black" d="M646,-127C646,-118.5 645.44,-109.53 644.59,-100.78"/>
<polygon fill="black" stroke="black" points="648.05,-100.22 643.48,-90.67 641.1,-100.99 648.05,-100.22"/>
</g>
<!-- node38 -->
<g id="node18" class="node">
<title>node38</title>
<polygon fill="lightblue" stroke="black" points="705.5,-0.5 705.5,-90.5 808.5,-90.5 808.5,-0.5 705.5,-0.5"/>
<text text-anchor="middle" x="757" y="-78.5" font-family="Times,serif" font-size="10.00">data:</text>
<text text-anchor="middle" x="757" y="-67.5" font-family="Times,serif" font-size="10.00"> Kar&#45;Karych</text>
<polyline fill="none" stroke="black" points="705.5,-60.5 808.5,-60.5 "/>
<text text-anchor="middle" x="757" y="-48.5" font-family="Times,serif" font-size="10.00">prev:</text>
<text text-anchor="middle" x="757" y="-37.5" font-family="Times,serif" font-size="10.00">0x56390b522dd0</text>
<polyline fill="none" stroke="black" points="705.5,-30.5 808.5,-30.5 "/>
<text text-anchor="middle" x="729.5" y="-18.5" font-family="Times,serif" font-size="10.00">left:</text>
<text text-anchor="middle" x="729.5" y="-7.5" font-family="Times,serif" font-size="10.00">(nil)</text>
<polyline fill="none" stroke="black" points="753.5,-0.5 753.5,-30.5 "/>
<text text-anchor="middle" x="781" y="-18.5" font-family="Times,serif" font-size="10.00">right:</text>
<text text-anchor="middle" x="781" y="-7.5" font-family="Times,serif" font-size="10.00">(nil)</text>
</g>
<!-- node36&#45;&gt;node38 -->
<g id="edge13" class="edge">
<title>node36:right&#45;&gt;node38</title>
<path fill="none" stroke="black" d="M748,-127C748,-118.51 748.5,-109.55 749.27,-100.81"/>
<polygon fill="black" stroke="black" points="752.76,-100.99 750.27,-90.69 745.8,-100.29 752.76,-100.99"/>
</g>
</g>
</svg>
