<?xml version="1.0" encoding="UTF-8" standalone="no"?>
<!DOCTYPE svg PUBLIC "-//W3C//DTD SVG 1.1//EN"
 "http://www.w3.org/Graphics/SVG/1.1/DTD/svg11.dtd">
<!-- Generated by graphviz version 2.43.0 (0)
 -->
<!-- Title: G Pages: 1 -->
<svg width="1211pt" height="653pt"
 viewBox="0.00 0.00 1210.50 653.00" xmlns="http://www.w3.org/2000/svg" xmlns:xlink="http://www.w3.org/1999/xlink">
<g id="graph0" class="graph" transform="scale(1 1) rotate(0) translate(4 649)">
<title>G</title>
<polygon fill="white" stroke="transparent" points="-4,4 -4,-649 1206.5,-649 1206.5,4 -4,4"/>
<!-- node1 -->
<g id="node1" class="node">
<title>node1</title>
<polygon fill="lightblue" stroke="black" points="791.5,-645 735.5,-645 735.5,-609 791.5,-609 791.5,-645"/>
<text text-anchor="middle" x="763.5" y="-622.6" font-family="Times,serif" font-size="18.00">man</text>
</g>
<!-- node2 -->
<g id="node2" class="node">
<title>node2</title>
<polygon fill="lightblue" stroke="black" points="735.5,-558 607.5,-558 607.5,-522 735.5,-522 735.5,-558"/>
<text text-anchor="middle" x="671.5" y="-535.6" font-family="Times,serif" font-size="18.00">18 years old</text>
</g>
<!-- node1&#45;&gt;node2 -->
<g id="edge1" class="edge">
<title>node1&#45;&gt;node2</title>
<path fill="none" stroke="green" d="M744.88,-608.8C731.29,-596.24 712.68,-579.05 697.61,-565.12"/>
<polygon fill="green" stroke="green" points="699.81,-562.39 690.09,-558.18 695.06,-567.53 699.81,-562.39"/>
<text text-anchor="middle" x="732" y="-579.8" font-family="Times,serif" font-size="14.00">да</text>
</g>
<!-- node21 -->
<g id="node21" class="node">
<title>node21</title>
<polygon fill="lightblue" stroke="black" points="935.5,-558 837.5,-558 837.5,-522 935.5,-522 935.5,-558"/>
<text text-anchor="middle" x="886.5" y="-535.6" font-family="Times,serif" font-size="18.00">beautiful</text>
</g>
<!-- node1&#45;&gt;node21 -->
<g id="edge28" class="edge">
<title>node1&#45;&gt;node21</title>
<path fill="none" stroke="red" d="M788.39,-608.8C807.06,-595.9 832.81,-578.1 853.25,-563.98"/>
<polygon fill="red" stroke="red" points="855.41,-566.74 861.65,-558.18 851.43,-560.98 855.41,-566.74"/>
<text text-anchor="middle" x="845" y="-579.8" font-family="Times,serif" font-size="14.00">нет</text>
</g>
<!-- node3 -->
<g id="node3" class="node">
<title>node3</title>
<polygon fill="lightblue" stroke="black" points="533,-471 376,-471 376,-435 533,-435 533,-471"/>
<text text-anchor="middle" x="454.5" y="-448.6" font-family="Times,serif" font-size="18.00">a MIPT student</text>
</g>
<!-- node2&#45;&gt;node3 -->
<g id="edge2" class="edge">
<title>node2&#45;&gt;node3</title>
<path fill="none" stroke="green" d="M627.85,-521.9C593.2,-508.33 544.61,-489.29 507.68,-474.83"/>
<polygon fill="green" stroke="green" points="508.67,-471.46 498.08,-471.07 506.12,-477.98 508.67,-471.46"/>
<text text-anchor="middle" x="585" y="-492.8" font-family="Times,serif" font-size="14.00">да</text>
</g>
<!-- node16 -->
<g id="node16" class="node">
<title>node16</title>
<polygon fill="lightblue" stroke="black" points="759.5,-471 583.5,-471 583.5,-435 759.5,-435 759.5,-471"/>
<text text-anchor="middle" x="671.5" y="-448.6" font-family="Times,serif" font-size="18.00">Studies at Letovo</text>
</g>
<!-- node2&#45;&gt;node16 -->
<g id="edge19" class="edge">
<title>node2&#45;&gt;node16</title>
<path fill="none" stroke="red" d="M671.5,-521.8C671.5,-510.16 671.5,-494.55 671.5,-481.24"/>
<polygon fill="red" stroke="red" points="675,-481.18 671.5,-471.18 668,-481.18 675,-481.18"/>
<text text-anchor="middle" x="684" y="-492.8" font-family="Times,serif" font-size="14.00">нет</text>
</g>
<!-- node4 -->
<g id="node4" class="node">
<title>node4</title>
<polygon fill="lightblue" stroke="black" points="399.5,-384 235.5,-384 235.5,-348 399.5,-348 399.5,-384"/>
<text text-anchor="middle" x="317.5" y="-361.6" font-family="Times,serif" font-size="18.00">studies at FOPF</text>
</g>
<!-- node3&#45;&gt;node4 -->
<g id="edge3" class="edge">
<title>node3&#45;&gt;node4</title>
<path fill="none" stroke="green" d="M426.78,-434.8C405.79,-421.78 376.78,-403.78 353.93,-389.6"/>
<polygon fill="green" stroke="green" points="355.53,-386.47 345.18,-384.18 351.83,-392.42 355.53,-386.47"/>
<text text-anchor="middle" x="403" y="-405.8" font-family="Times,serif" font-size="14.00">да</text>
</g>
<!-- node15 -->
<g id="node15" class="node">
<title>node15</title>
<polygon fill="lightblue" stroke="black" points="491.5,-384 417.5,-384 417.5,-348 491.5,-348 491.5,-384"/>
<text text-anchor="middle" x="454.5" y="-361.6" font-family="Times,serif" font-size="18.00">Danya</text>
</g>
<!-- node3&#45;&gt;node15 -->
<g id="edge14" class="edge">
<title>node3&#45;&gt;node15</title>
<path fill="none" stroke="red" d="M454.5,-434.8C454.5,-423.16 454.5,-407.55 454.5,-394.24"/>
<polygon fill="red" stroke="red" points="458,-394.18 454.5,-384.18 451,-394.18 458,-394.18"/>
<text text-anchor="middle" x="467" y="-405.8" font-family="Times,serif" font-size="14.00">нет</text>
</g>
<!-- node5 -->
<g id="node5" class="node">
<title>node5</title>
<polygon fill="lightblue" stroke="black" points="246,-297 61,-297 61,-261 246,-261 246,-297"/>
<text text-anchor="middle" x="153.5" y="-274.6" font-family="Times,serif" font-size="18.00">A friend of Kirpich</text>
</g>
<!-- node4&#45;&gt;node5 -->
<g id="edge4" class="edge">
<title>node4&#45;&gt;node5</title>
<path fill="none" stroke="green" d="M284.31,-347.8C258.66,-334.51 223,-316.02 195.39,-301.71"/>
<polygon fill="green" stroke="green" points="196.85,-298.52 186.36,-297.03 193.63,-304.74 196.85,-298.52"/>
<text text-anchor="middle" x="254" y="-318.8" font-family="Times,serif" font-size="14.00">да</text>
</g>
<!-- node8 -->
<g id="node8" class="node">
<title>node8</title>
<polygon fill="lightblue" stroke="black" points="434.5,-297 264.5,-297 264.5,-261 434.5,-261 434.5,-297"/>
<text text-anchor="middle" x="349.5" y="-274.6" font-family="Times,serif" font-size="18.00">studies at FRKT!</text>
</g>
<!-- node4&#45;&gt;node8 -->
<g id="edge13" class="edge">
<title>node4&#45;&gt;node8</title>
<path fill="none" stroke="red" d="M323.98,-347.8C328.4,-336.05 334.35,-320.24 339.39,-306.84"/>
<polygon fill="red" stroke="red" points="342.79,-307.77 343.03,-297.18 336.24,-305.3 342.79,-307.77"/>
<text text-anchor="middle" x="348" y="-318.8" font-family="Times,serif" font-size="14.00">нет</text>
</g>
<!-- node6 -->
<g id="node6" class="node">
<title>node6</title>
<polygon fill="lightblue" stroke="black" points="139,-210 0,-210 0,-174 139,-174 139,-210"/>
<text text-anchor="middle" x="69.5" y="-187.6" font-family="Times,serif" font-size="18.00">drug kirpicha</text>
</g>
<!-- node5&#45;&gt;node6 -->
<g id="edge5" class="edge">
<title>node5&#45;&gt;node6</title>
<path fill="none" stroke="green" d="M136.5,-260.8C124.2,-248.36 107.41,-231.36 93.72,-217.5"/>
<polygon fill="green" stroke="green" points="95.99,-214.83 86.47,-210.18 91.01,-219.75 95.99,-214.83"/>
<text text-anchor="middle" x="126" y="-231.8" font-family="Times,serif" font-size="14.00">да</text>
</g>
<!-- node7 -->
<g id="node7" class="node">
<title>node7</title>
<polygon fill="lightblue" stroke="black" points="227.5,-210 157.5,-210 157.5,-174 227.5,-174 227.5,-210"/>
<text text-anchor="middle" x="192.5" y="-187.6" font-family="Times,serif" font-size="18.00">Sasha</text>
</g>
<!-- node5&#45;&gt;node7 -->
<g id="edge6" class="edge">
<title>node5&#45;&gt;node7</title>
<path fill="none" stroke="red" d="M161.39,-260.8C166.84,-248.93 174.18,-232.93 180.36,-219.45"/>
<polygon fill="red" stroke="red" points="183.63,-220.72 184.62,-210.18 177.27,-217.8 183.63,-220.72"/>
<text text-anchor="middle" x="188" y="-231.8" font-family="Times,serif" font-size="14.00">нет</text>
</g>
<!-- node9 -->
<g id="node9" class="node">
<title>node9</title>
<polygon fill="lightblue" stroke="black" points="393.5,-210 265.5,-210 265.5,-174 393.5,-174 393.5,-210"/>
<text text-anchor="middle" x="329.5" y="-187.6" font-family="Times,serif" font-size="18.00">Lives in 229</text>
</g>
<!-- node8&#45;&gt;node9 -->
<g id="edge7" class="edge">
<title>node8&#45;&gt;node9</title>
<path fill="none" stroke="green" d="M345.45,-260.8C342.71,-249.16 339.04,-233.55 335.91,-220.24"/>
<polygon fill="green" stroke="green" points="339.24,-219.11 333.54,-210.18 332.42,-220.71 339.24,-219.11"/>
<text text-anchor="middle" x="350" y="-231.8" font-family="Times,serif" font-size="14.00">да</text>
</g>
<!-- node14 -->
<g id="node14" class="node">
<title>node14</title>
<polygon fill="lightblue" stroke="black" points="473.5,-210 411.5,-210 411.5,-174 473.5,-174 473.5,-210"/>
<text text-anchor="middle" x="442.5" y="-187.6" font-family="Times,serif" font-size="18.00">Kirill</text>
</g>
<!-- node8&#45;&gt;node14 -->
<g id="edge12" class="edge">
<title>node8&#45;&gt;node14</title>
<path fill="none" stroke="red" d="M368.32,-260.8C382.06,-248.24 400.87,-231.05 416.11,-217.12"/>
<polygon fill="red" stroke="red" points="418.69,-219.51 423.71,-210.18 413.97,-214.34 418.69,-219.51"/>
<text text-anchor="middle" x="415" y="-231.8" font-family="Times,serif" font-size="14.00">нет</text>
</g>
<!-- node10 -->
<g id="node10" class="node">
<title>node10</title>
<polygon fill="lightblue" stroke="black" points="314.5,-123 180.5,-123 180.5,-87 314.5,-87 314.5,-123"/>
<text text-anchor="middle" x="247.5" y="-100.6" font-family="Times,serif" font-size="18.00">plays hockey</text>
</g>
<!-- node9&#45;&gt;node10 -->
<g id="edge8" class="edge">
<title>node9&#45;&gt;node10</title>
<path fill="none" stroke="green" d="M312.91,-173.8C300.9,-161.36 284.51,-144.36 271.14,-130.5"/>
<polygon fill="green" stroke="green" points="273.53,-127.94 264.07,-123.18 268.49,-132.8 273.53,-127.94"/>
<text text-anchor="middle" x="302" y="-144.8" font-family="Times,serif" font-size="14.00">да</text>
</g>
<!-- node13 -->
<g id="node13" class="node">
<title>node13</title>
<polygon fill="lightblue" stroke="black" points="406.5,-123 332.5,-123 332.5,-87 406.5,-87 406.5,-123"/>
<text text-anchor="middle" x="369.5" y="-100.6" font-family="Times,serif" font-size="18.00">Dimas</text>
</g>
<!-- node9&#45;&gt;node13 -->
<g id="edge11" class="edge">
<title>node9&#45;&gt;node13</title>
<path fill="none" stroke="red" d="M337.59,-173.8C343.18,-161.93 350.71,-145.93 357.05,-132.45"/>
<polygon fill="red" stroke="red" points="360.33,-133.71 361.42,-123.18 353.99,-130.73 360.33,-133.71"/>
<text text-anchor="middle" x="365" y="-144.8" font-family="Times,serif" font-size="14.00">нет</text>
</g>
<!-- node11 -->
<g id="node11" class="node">
<title>node11</title>
<polygon fill="lightblue" stroke="black" points="237.5,-36 157.5,-36 157.5,0 237.5,0 237.5,-36"/>
<text text-anchor="middle" x="197.5" y="-13.6" font-family="Times,serif" font-size="18.00">Serega</text>
</g>
<!-- node10&#45;&gt;node11 -->
<g id="edge9" class="edge">
<title>node10&#45;&gt;node11</title>
<path fill="none" stroke="green" d="M237.38,-86.8C230.33,-74.82 220.8,-58.62 212.83,-45.06"/>
<polygon fill="green" stroke="green" points="215.69,-43.02 207.6,-36.18 209.66,-46.57 215.69,-43.02"/>
<text text-anchor="middle" x="234" y="-57.8" font-family="Times,serif" font-size="14.00">да</text>
</g>
<!-- node12 -->
<g id="node12" class="node">
<title>node12</title>
<polygon fill="lightblue" stroke="black" points="339,-36 256,-36 256,0 339,0 339,-36"/>
<text text-anchor="middle" x="297.5" y="-13.6" font-family="Times,serif" font-size="18.00">Kirpich</text>
</g>
<!-- node10&#45;&gt;node12 -->
<g id="edge10" class="edge">
<title>node10&#45;&gt;node12</title>
<path fill="none" stroke="red" d="M257.62,-86.8C264.67,-74.82 274.2,-58.62 282.17,-45.06"/>
<polygon fill="red" stroke="red" points="285.34,-46.57 287.4,-36.18 279.31,-43.02 285.34,-46.57"/>
<text text-anchor="middle" x="288" y="-57.8" font-family="Times,serif" font-size="14.00">нет</text>
</g>
<!-- node17 -->
<g id="node17" class="node">
<title>node17</title>
<polygon fill="lightblue" stroke="black" points="657,-384 510,-384 510,-348 657,-348 657,-384"/>
<text text-anchor="middle" x="583.5" y="-361.6" font-family="Times,serif" font-size="18.00">plays volleball</text>
</g>
<!-- node16&#45;&gt;node17 -->
<g id="edge15" class="edge">
<title>node16&#45;&gt;node17</title>
<path fill="none" stroke="green" d="M653.69,-434.8C640.81,-422.36 623.22,-405.36 608.87,-391.5"/>
<polygon fill="green" stroke="green" points="610.91,-388.61 601.28,-384.18 606.04,-393.64 610.91,-388.61"/>
<text text-anchor="middle" x="642" y="-405.8" font-family="Times,serif" font-size="14.00">да</text>
</g>
<!-- node20 -->
<g id="node20" class="node">
<title>node20</title>
<polygon fill="lightblue" stroke="black" points="732,-384 675,-384 675,-348 732,-348 732,-384"/>
<text text-anchor="middle" x="703.5" y="-361.6" font-family="Times,serif" font-size="18.00">Vlad</text>
</g>
<!-- node16&#45;&gt;node20 -->
<g id="edge18" class="edge">
<title>node16&#45;&gt;node20</title>
<path fill="none" stroke="red" d="M677.98,-434.8C682.4,-423.05 688.35,-407.24 693.39,-393.84"/>
<polygon fill="red" stroke="red" points="696.79,-394.77 697.03,-384.18 690.24,-392.3 696.79,-394.77"/>
<text text-anchor="middle" x="702" y="-405.8" font-family="Times,serif" font-size="14.00">нет</text>
</g>
<!-- node18 -->
<g id="node18" class="node">
<title>node18</title>
<polygon fill="lightblue" stroke="black" points="650.5,-297 484.5,-297 484.5,-261 650.5,-261 650.5,-297"/>
<text text-anchor="middle" x="567.5" y="-274.6" font-family="Times,serif" font-size="18.00">Sergey Romadin</text>
</g>
<!-- node17&#45;&gt;node18 -->
<g id="edge16" class="edge">
<title>node17&#45;&gt;node18</title>
<path fill="none" stroke="green" d="M580.26,-347.8C578.07,-336.16 575.13,-320.55 572.63,-307.24"/>
<polygon fill="green" stroke="green" points="576.02,-306.36 570.73,-297.18 569.14,-307.65 576.02,-306.36"/>
<text text-anchor="middle" x="585" y="-318.8" font-family="Times,serif" font-size="14.00">да</text>
</g>
<!-- node19 -->
<g id="node19" class="node">
<title>node19</title>
<polygon fill="lightblue" stroke="black" points="740.5,-297 668.5,-297 668.5,-261 740.5,-261 740.5,-297"/>
<text text-anchor="middle" x="704.5" y="-274.6" font-family="Times,serif" font-size="18.00">Misha</text>
</g>
<!-- node17&#45;&gt;node19 -->
<g id="edge17" class="edge">
<title>node17&#45;&gt;node19</title>
<path fill="none" stroke="red" d="M607.99,-347.8C626.35,-334.9 651.69,-317.1 671.79,-302.98"/>
<polygon fill="red" stroke="red" points="673.88,-305.79 680.05,-297.18 669.86,-300.06 673.88,-305.79"/>
<text text-anchor="middle" x="664" y="-318.8" font-family="Times,serif" font-size="14.00">нет</text>
</g>
<!-- node22 -->
<g id="node22" class="node">
<title>node22</title>
<polygon fill="lightblue" stroke="black" points="964,-471 809,-471 809,-435 964,-435 964,-471"/>
<text text-anchor="middle" x="886.5" y="-448.6" font-family="Times,serif" font-size="18.00">lives in London</text>
</g>
<!-- node21&#45;&gt;node22 -->
<g id="edge20" class="edge">
<title>node21&#45;&gt;node22</title>
<path fill="none" stroke="green" d="M886.5,-521.8C886.5,-510.16 886.5,-494.55 886.5,-481.24"/>
<polygon fill="green" stroke="green" points="890,-481.18 886.5,-471.18 883,-481.18 890,-481.18"/>
<text text-anchor="middle" x="895" y="-492.8" font-family="Times,serif" font-size="14.00">да</text>
</g>
<!-- node27 -->
<g id="node27" class="node">
<title>node27</title>
<polygon fill="lightblue" stroke="black" points="1097.5,-471 1019.5,-471 1019.5,-435 1097.5,-435 1097.5,-471"/>
<text text-anchor="middle" x="1058.5" y="-448.6" font-family="Times,serif" font-size="18.00">animal</text>
</g>
<!-- node21&#45;&gt;node27 -->
<g id="edge27" class="edge">
<title>node21&#45;&gt;node27</title>
<path fill="none" stroke="red" d="M921.31,-521.8C948.32,-508.45 985.93,-489.86 1014.95,-475.52"/>
<polygon fill="red" stroke="red" points="1016.62,-478.6 1024.04,-471.03 1013.52,-472.32 1016.62,-478.6"/>
<text text-anchor="middle" x="996" y="-492.8" font-family="Times,serif" font-size="14.00">нет</text>
</g>
<!-- node23 -->
<g id="node23" class="node">
<title>node23</title>
<polygon fill="lightblue" stroke="black" points="812.5,-384 750.5,-384 750.5,-348 812.5,-348 812.5,-384"/>
<text text-anchor="middle" x="781.5" y="-361.6" font-family="Times,serif" font-size="18.00">Anya</text>
</g>
<!-- node22&#45;&gt;node23 -->
<g id="edge21" class="edge">
<title>node22&#45;&gt;node23</title>
<path fill="none" stroke="green" d="M865.25,-434.8C849.6,-422.13 828.11,-404.73 810.82,-390.74"/>
<polygon fill="green" stroke="green" points="812.69,-387.75 802.72,-384.18 808.29,-393.19 812.69,-387.75"/>
<text text-anchor="middle" x="849" y="-405.8" font-family="Times,serif" font-size="14.00">да</text>
</g>
<!-- node24 -->
<g id="node24" class="node">
<title>node24</title>
<polygon fill="lightblue" stroke="black" points="1006.5,-384 830.5,-384 830.5,-348 1006.5,-348 1006.5,-384"/>
<text text-anchor="middle" x="918.5" y="-361.6" font-family="Times,serif" font-size="18.00">Studies at Letovo</text>
</g>
<!-- node22&#45;&gt;node24 -->
<g id="edge24" class="edge">
<title>node22&#45;&gt;node24</title>
<path fill="none" stroke="red" d="M892.98,-434.8C897.4,-423.05 903.35,-407.24 908.39,-393.84"/>
<polygon fill="red" stroke="red" points="911.79,-394.77 912.03,-384.18 905.24,-392.3 911.79,-394.77"/>
<text text-anchor="middle" x="917" y="-405.8" font-family="Times,serif" font-size="14.00">нет</text>
</g>
<!-- node25 -->
<g id="node25" class="node">
<title>node25</title>
<polygon fill="lightblue" stroke="black" points="878,-297 775,-297 775,-261 878,-261 878,-297"/>
<text text-anchor="middle" x="826.5" y="-274.6" font-family="Times,serif" font-size="18.00">Sashenka</text>
</g>
<!-- node24&#45;&gt;node25 -->
<g id="edge22" class="edge">
<title>node24&#45;&gt;node25</title>
<path fill="none" stroke="green" d="M899.88,-347.8C886.29,-335.24 867.68,-318.05 852.61,-304.12"/>
<polygon fill="green" stroke="green" points="854.81,-301.39 845.09,-297.18 850.06,-306.53 854.81,-301.39"/>
<text text-anchor="middle" x="887" y="-318.8" font-family="Times,serif" font-size="14.00">да</text>
</g>
<!-- node26 -->
<g id="node26" class="node">
<title>node26</title>
<polygon fill="lightblue" stroke="black" points="973,-297 896,-297 896,-261 973,-261 973,-297"/>
<text text-anchor="middle" x="934.5" y="-274.6" font-family="Times,serif" font-size="18.00">Masha</text>
</g>
<!-- node24&#45;&gt;node26 -->
<g id="edge23" class="edge">
<title>node24&#45;&gt;node26</title>
<path fill="none" stroke="red" d="M921.74,-347.8C923.93,-336.16 926.87,-320.55 929.37,-307.24"/>
<polygon fill="red" stroke="red" points="932.86,-307.65 931.27,-297.18 925.98,-306.36 932.86,-307.65"/>
<text text-anchor="middle" x="940" y="-318.8" font-family="Times,serif" font-size="14.00">нет</text>
</g>
<!-- node28 -->
<g id="node28" class="node">
<title>node28</title>
<polygon fill="lightblue" stroke="black" points="1092.5,-384 1024.5,-384 1024.5,-348 1092.5,-348 1092.5,-384"/>
<text text-anchor="middle" x="1058.5" y="-361.6" font-family="Times,serif" font-size="18.00">Black</text>
</g>
<!-- node27&#45;&gt;node28 -->
<g id="edge25" class="edge">
<title>node27&#45;&gt;node28</title>
<path fill="none" stroke="green" d="M1058.5,-434.8C1058.5,-423.16 1058.5,-407.55 1058.5,-394.24"/>
<polygon fill="green" stroke="green" points="1062,-394.18 1058.5,-384.18 1055,-394.18 1062,-394.18"/>
<text text-anchor="middle" x="1067" y="-405.8" font-family="Times,serif" font-size="14.00">да</text>
</g>
<!-- node29 -->
<g id="node29" class="node">
<title>node29</title>
<polygon fill="lightblue" stroke="black" points="1202.5,-384 1110.5,-384 1110.5,-348 1202.5,-348 1202.5,-384"/>
<text text-anchor="middle" x="1156.5" y="-361.6" font-family="Times,serif" font-size="18.00">Noname</text>
</g>
<!-- node27&#45;&gt;node29 -->
<g id="edge26" class="edge">
<title>node27&#45;&gt;node29</title>
<path fill="none" stroke="red" d="M1078.33,-434.8C1092.94,-422.13 1113,-404.73 1129.13,-390.74"/>
<polygon fill="red" stroke="red" points="1131.44,-393.37 1136.7,-384.18 1126.85,-388.08 1131.44,-393.37"/>
<text text-anchor="middle" x="1126" y="-405.8" font-family="Times,serif" font-size="14.00">нет</text>
</g>
</g>
</svg>
